HIERARCHY
ROOT Hips
{
	OFFSET 0.000000 1.471914 24.280096
	CHANNELS 6 Xposition Yposition Zposition Xrotation Yrotation Zrotation
	JOINT Spine
	{
		OFFSET 0.000000 0.900110 1.860670
		CHANNELS 6 Xposition Yposition Zposition Xrotation Yrotation Zrotation
		JOINT Spine1
		{
			OFFSET 0.000000 0.400320 2.270309
			CHANNELS 6 Xposition Yposition Zposition Xrotation Yrotation Zrotation
			JOINT Spine2
			{
				OFFSET 0.000000 0.200920 2.296560
				CHANNELS 6 Xposition Yposition Zposition Xrotation Yrotation Zrotation
				JOINT Spine3
				{
					OFFSET 0.000000 0.000000 2.305330
					CHANNELS 6 Xposition Yposition Zposition Xrotation Yrotation Zrotation
					JOINT Neck
					{
						OFFSET 0.000000 -0.864490 6.051487
						CHANNELS 6 Xposition Yposition Zposition Xrotation Yrotation Zrotation
						JOINT Head
						{
							OFFSET 0.000000 -0.550429 3.121674
							CHANNELS 6 Xposition Yposition Zposition Xrotation Yrotation Zrotation
							End Site
							{
								OFFSET 0.000000 0.000000 3.731750
							}
						}
					}
					JOINT RightShoulder
					{
						OFFSET -0.788280 -1.313800 4.256718
						CHANNELS 6 Xposition Yposition Zposition Xrotation Yrotation Zrotation
						JOINT RightArm
						{
							OFFSET -3.915130 0.000000 0.000000
							CHANNELS 6 Xposition Yposition Zposition Xrotation Yrotation Zrotation
							JOINT RightForeArm
							{
								OFFSET -6.914910 0.000000 0.000000
								CHANNELS 6 Xposition Yposition Zposition Xrotation Yrotation Zrotation
								JOINT RightHand
								{
									OFFSET -6.096219 0.000000 0.000000
									CHANNELS 6 Xposition Yposition Zposition Xrotation Yrotation Zrotation
									JOINT RightHandEnd
									{
										OFFSET -1.749950 0.000000 0.000000
										CHANNELS 6 Xposition Yposition Zposition Xrotation Yrotation Zrotation
										End Site
										{
											OFFSET -1.749950 0.000000 0.000000
										}
									}
									JOINT RightHandThumb1
									{
										OFFSET -0.699980 -1.166630 -0.466648
										CHANNELS 6 Xposition Yposition Zposition Xrotation Yrotation Zrotation
										End Site
										{
											OFFSET -1.690319 -0.452920 0.000000
										}
									}
								}
							}
						}
					}
					JOINT LeftShoulder
					{
						OFFSET 0.788280 -1.313800 4.256718
						CHANNELS 6 Xposition Yposition Zposition Xrotation Yrotation Zrotation
						JOINT LeftArm
						{
							OFFSET 3.915130 0.000000 0.000000
							CHANNELS 6 Xposition Yposition Zposition Xrotation Yrotation Zrotation
							JOINT LeftForeArm
							{
								OFFSET 6.914910 0.000000 0.000000
								CHANNELS 6 Xposition Yposition Zposition Xrotation Yrotation Zrotation
								JOINT LeftHand
								{
									OFFSET 6.096219 0.000000 0.000000
									CHANNELS 6 Xposition Yposition Zposition Xrotation Yrotation Zrotation
									JOINT LeftHandEnd
									{
										OFFSET 1.749950 0.000000 0.000000
										CHANNELS 6 Xposition Yposition Zposition Xrotation Yrotation Zrotation
										End Site
										{
											OFFSET 1.749950 0.000000 0.000000
										}
									}
									JOINT LeftHandThumb1
									{
										OFFSET 0.699980 -1.166630 -0.466648
										CHANNELS 6 Xposition Yposition Zposition Xrotation Yrotation Zrotation
										End Site
										{
											OFFSET 1.690319 -0.452920 0.000000
										}
									}
								}
							}
						}
					}
				}
			}
		}
	}
	JOINT RightUpLeg
	{
		OFFSET -2.338570 -0.252550 -0.551512
		CHANNELS 6 Xposition Yposition Zposition Xrotation Yrotation Zrotation
		JOINT RightLeg
		{
			OFFSET 0.000000 0.000000 -10.744959
			CHANNELS 6 Xposition Yposition Zposition Xrotation Yrotation Zrotation
			JOINT RightFoot
			{
				OFFSET 0.000000 -0.000001 -10.930849
				CHANNELS 6 Xposition Yposition Zposition Xrotation Yrotation Zrotation
				JOINT RightToeBase
				{
					OFFSET 0.000000 -4.087269 -1.487650
					CHANNELS 6 Xposition Yposition Zposition Xrotation Yrotation Zrotation
					End Site
					{
						OFFSET 0.000000 -1.891870 0.000000
					}
				}
			}
		}
	}
	JOINT LeftUpLeg
	{
		OFFSET 2.338570 -0.252550 -0.551512
		CHANNELS 6 Xposition Yposition Zposition Xrotation Yrotation Zrotation
		JOINT LeftLeg
		{
			OFFSET 0.000000 0.000000 -10.744959
			CHANNELS 6 Xposition Yposition Zposition Xrotation Yrotation Zrotation
			JOINT LeftFoot
			{
				OFFSET 0.000000 -0.000001 -10.930849
				CHANNELS 6 Xposition Yposition Zposition Xrotation Yrotation Zrotation
				JOINT LeftToeBase
				{
					OFFSET 0.000000 -4.087269 -1.487650
					CHANNELS 6 Xposition Yposition Zposition Xrotation Yrotation Zrotation
					End Site
					{
						OFFSET 0.000000 -1.891870 0.000000
					}
				}
			}
		}
	}
}
MOTION
Frames: 4
Frame Time: 0.041667
-0.000001 26.698664 39.738037 -10.712967 -15.278848 -24.074185 -0.000005 0.900093 1.860690 20.316263 -13.671988 -6.563227 -0.000001 0.400310 2.270319 -0.000006 0.000003 0.000005 0.000015 0.200923 2.296543 -0.000001 -0.000001 -0.000001 0.000001 -0.000046 2.305348 -0.000029 0.000000 3.395056 -0.000010 -0.864470 6.051500 5.845007 7.186384 -189.565494 0.000024 -0.550449 3.121712 0.000004 0.000000 0.000000 -0.788285 -1.313756 4.256752 -137.618422 42.738461 -46.893268 -3.915117 0.000017 -0.000023 -0.000000 -0.000002 -0.000000 -6.914891 -0.000009 0.000006 0.000014 0.000029 -25.416775 -6.096192 -0.000019 0.000009 0.000067 0.000185 -0.000006 -1.749915 0.000008 0.000019 0.000004 -0.000001 0.000001 -0.700007 -1.166630 -0.466656 0.000006 -0.000000 -0.000005 0.788278 -1.313797 4.256724 -102.234770 -36.752435 77.217017 3.915177 -0.000002 0.000008 0.000003 0.000002 -0.000006 6.914911 -0.000012 -0.000013 0.000023 -0.000046 25.399935 6.096237 0.000070 -0.000001 0.000109 -0.000191 -0.000043 1.749930 0.000009 0.000011 0.000003 -0.000001 0.000005 0.699959 -1.166596 -0.466666 0.000024 -0.000007 -0.000023 -2.338586 -0.252548 -0.551518 9.571036 30.316676 -2.816991 0.000007 -0.000019 -10.744957 13.850411 2.842638 3.422056 -0.000018 0.000021 -10.930862 0.000002 -0.000003 -0.000002 0.000016 -4.087257 -1.487635 0.000004 -0.000001 0.000002 2.338568 -0.252548 -0.551461 12.242368 25.422862 -3.540946 0.000001 -0.000019 -10.744940 12.899752 0.203490 2.036098 -0.000000 -0.000012 -10.930866 0.000029 -0.000006 0.000002 -0.000010 -4.087215 -1.487650 0.000001 0.000000 -0.000001 
-0.000000 26.698664 39.738037 -10.545377 -15.533529 -24.334345 -0.000007 0.900095 1.860690 20.208675 -13.412259 -6.606570 -0.000002 0.400312 2.270325 -0.000005 0.000006 0.000006 0.000018 0.200926 2.296541 0.000001 0.000000 -0.000004 0.000001 -0.000047 2.305352 -0.000025 -0.000005 3.265907 -0.000008 -0.864475 6.051498 5.841014 7.356998 -189.440774 0.000022 -0.550450 3.121716 0.000003 -0.000003 -0.000003 -0.788281 -1.313755 4.256760 -137.936763 43.004807 -46.844900 -3.915115 0.000020 -0.000031 -0.000002 -0.000002 -0.000000 -6.914896 -0.000004 0.000002 0.000013 0.000030 -25.316212 -6.096202 -0.000020 0.000006 0.000071 0.000184 -0.000003 -1.749919 0.000010 0.000011 0.000003 -0.000001 0.000001 -0.700012 -1.166631 -0.466660 0.000003 -0.000002 -0.000004 0.788277 -1.313797 4.256730 -102.394904 -35.969156 76.998048 3.915176 -0.000010 0.000008 0.000002 0.000003 -0.000006 6.914915 -0.000023 -0.000020 0.000023 -0.000045 25.973527 6.096234 0.000071 -0.000000 0.000107 -0.000193 -0.000042 1.749937 0.000010 0.000012 0.000000 0.000003 -0.000004 0.699957 -1.166596 -0.466667 0.000019 -0.000001 -0.000028 -2.338587 -0.252545 -0.551517 8.957271 30.579969 -2.670233 0.000006 -0.000015 -10.744956 13.985633 2.797499 3.461714 -0.000016 0.000022 -10.930858 -0.000005 -0.000003 -0.000002 0.000017 -4.087265 -1.487637 0.000003 0.000001 -0.000001 2.338565 -0.252543 -0.551458 11.691823 25.503378 -3.423837 -0.000001 -0.000020 -10.744936 13.077086 0.357721 2.028182 -0.000001 -0.000019 -10.930864 0.000027 -0.000003 0.000001 -0.000011 -4.087223 -1.487655 0.000003 -0.000000 0.000001 
-0.000010 26.698664 39.738037 -10.594431 -15.682031 -24.168686 -0.000006 0.900099 1.860692 20.228560 -13.119751 -6.584570 -0.000002 0.400309 2.270325 -0.000007 0.000001 0.000008 0.000016 0.200921 2.296543 0.000000 -0.000002 -0.000003 0.000004 -0.000047 2.305356 -0.000025 0.000008 3.164119 -0.000008 -0.864476 6.051506 5.909719 7.173976 -189.053284 0.000021 -0.550448 3.121712 0.000001 0.000001 -0.000004 -0.788284 -1.313757 4.256760 -138.073203 43.470497 -46.878307 -3.915116 0.000020 -0.000023 -0.000001 -0.000001 0.000000 -6.914893 -0.000004 0.000002 0.000012 0.000029 -25.771497 -6.096191 -0.000019 0.000009 0.000072 0.000186 -0.000006 -1.749919 0.000008 0.000015 0.000000 -0.000001 -0.000002 -0.700012 -1.166629 -0.466664 0.000001 -0.000003 -0.000006 0.788277 -1.313802 4.256730 -102.470480 -36.153253 77.014836 3.915176 -0.000008 0.000008 0.000003 0.000001 -0.000007 6.914917 -0.000013 -0.000017 0.000023 -0.000046 25.765345 6.096233 0.000071 0.000002 0.000108 -0.000195 -0.000039 1.749933 0.000010 0.000018 -0.000003 -0.000000 0.000002 0.699954 -1.166594 -0.466668 0.000015 -0.000004 -0.000020 -2.338586 -0.252540 -0.551511 9.242396 30.565243 -2.751224 0.000006 -0.000015 -10.744957 13.719943 2.999794 3.405643 -0.000017 0.000023 -10.930859 -0.000005 -0.000004 -0.000004 0.000014 -4.087256 -1.487635 0.000005 -0.000001 0.000001 2.338568 -0.252540 -0.551457 11.694294 25.586988 -3.421424 -0.000000 -0.000021 -10.744935 13.010266 0.100472 2.040743 0.000001 -0.000015 -10.930864 0.000034 -0.000003 0.000001 -0.000012 -4.087216 -1.487648 0.000003 0.000001 0.000003 
-0.000016 26.698669 39.738041 -10.611901 -15.811960 -24.010830 -0.000005 0.900095 1.860689 20.164697 -13.015902 -6.577763 -0.000003 0.400310 2.270321 -0.000004 0.000003 0.000007 0.000015 0.200920 2.296539 0.000000 0.000000 -0.000004 0.000001 -0.000051 2.305359 -0.000029 -0.000000 2.915069 -0.000013 -0.864475 6.051506 5.905841 7.232897 -188.203909 0.000023 -0.550453 3.121723 0.000003 0.000000 -0.000003 -0.788288 -1.313757 4.256762 -138.260801 43.983990 -46.857283 -3.915114 0.000020 -0.000031 0.000000 -0.000002 -0.000000 -6.914898 -0.000008 0.000006 0.000013 0.000029 -25.988824 -6.096198 -0.000020 0.000009 0.000069 0.000188 -0.000003 -1.749919 0.000008 0.000011 0.000001 -0.000001 0.000001 -0.700015 -1.166634 -0.466664 0.000003 -0.000001 -0.000003 0.788273 -1.313800 4.256732 -102.707563 -35.762549 76.760733 3.915175 -0.000006 0.000008 0.000000 0.000003 -0.000007 6.914916 -0.000016 -0.000013 0.000025 -0.000046 26.046694 6.096238 0.000070 -0.000001 0.000108 -0.000192 -0.000040 1.749929 0.000007 0.000007 0.000005 -0.000001 0.000003 0.699953 -1.166596 -0.466670 0.000024 -0.000006 -0.000021 -2.338585 -0.252543 -0.551514 9.219171 30.639074 -2.751661 0.000006 -0.000018 -10.744956 13.678189 3.162841 3.405892 -0.000017 0.000019 -10.930861 -0.000003 -0.000004 -0.000002 0.000017 -4.087264 -1.487638 0.000000 -0.000001 0.000001 2.338566 -0.252543 -0.551462 11.700533 25.723450 -3.432811 -0.000001 -0.000020 -10.744935 13.236486 -0.140303 2.096058 -0.000001 -0.000016 -10.930866 0.000031 -0.000004 0.000000 -0.000011 -4.087219 -1.487652 0.000002 -0.000000 0.000000 
